<?xml version="1.0" encoding="UTF-8" standalone="no"?><!DOCTYPE svg PUBLIC "-//W3C//DTD SVG 1.1//EN" "http://www.w3.org/Graphics/SVG/1.1/DTD/svg11.dtd"><svg xmlns="http://www.w3.org/2000/svg" xmlns:xlink="http://www.w3.org/1999/xlink" version="1.1" width="1024" height="1024" viewBox="0 0 1024 1024">
<desc>Created with SVGMaker Editor 3.0.0</desc>
<defs>
</defs>
<rect transform="translate(0,0)" style="fill: rgb(255,255,255)" x="0" y="-4" width="805" height="600"/>
<g transform="matrix(1 0 0 1 420 583)" clip-path="url(#CLIPPATH_696)">
<clipPath id="CLIPPATH_696">
<rect transform="matrix(1 0 0 1 -17.5 -283)" x="-402.5" y="-300" width="805" height="600" id="CLIPPATH_624"/>
</clipPath>
<path transform=" translate(-370, -3)" style="stroke: rgb(0,0,0); stroke-linecap: round; fill: none" stroke-linecap="round" d="M 0 6 L 0 0 L 740 0 L 740 6"/>
</g>
<g transform="matrix(1 0 0 1 50 583)" clip-path="url(#CLIPPATH_697)">
<clipPath id="CLIPPATH_697">
<rect transform="matrix(1 0 0 1 352.5 -283)" x="-402.5" y="-300" width="805" height="600" id="CLIPPATH_625"/>
</clipPath>
<line transform="translate(0,0)" style="stroke: rgb(0,0,0); fill: none" x1="0" y1="-3" x2="0" y2="3"/>
</g>
<text transform="matrix(1 0 0 1 50.0542 592.9758)" style="fill: rgb(0,0,0); text-decoration-thickness: 6.6667%; white-space: pre" x="-10.5" y="3.1414" font-family="sans-serif" font-size="10" font-style="normal" font-weight="normal"><tspan x="-10.5" y="3.1414">M</tspan><tspan x="-1.16992" y="3.1414">a</tspan><tspan x="5.3916" y="3.1414">y</tspan></text>
<g transform="matrix(1 0 0 1 125.46053 583)" clip-path="url(#CLIPPATH_698)">
<clipPath id="CLIPPATH_698">
<rect transform="matrix(1 0 0 1 277.03947 -283)" x="-402.5" y="-300" width="805" height="600" id="CLIPPATH_626"/>
</clipPath>
<line transform="translate(0,0)" style="stroke: rgb(0,0,0); fill: none" x1="0" y1="-3" x2="0" y2="3"/>
</g>
<text transform="matrix(1 0 0 1 125.6182 592.9758)" style="fill: rgb(0,0,0); text-decoration-thickness: 6.6667%; white-space: pre" x="-12.5" y="3.1414" font-family="sans-serif" font-size="10" font-style="normal" font-weight="normal"><tspan x="-12.5" y="3.1414">J</tspan><tspan x="-6.5" y="3.1414">u</tspan><tspan x="0.06152" y="3.1414">n</tspan><tspan x="6.62305" y="3.1414">e</tspan></text>
<g transform="matrix(1 0 0 1 198.48684 583)" clip-path="url(#CLIPPATH_699)">
<clipPath id="CLIPPATH_699">
<rect transform="matrix(1 0 0 1 204.01316 -283)" x="-402.5" y="-300" width="805" height="600" id="CLIPPATH_627"/>
</clipPath>
<line transform="translate(0,0)" style="stroke: rgb(0,0,0); fill: none" x1="0" y1="-3" x2="0" y2="3"/>
</g>
<text transform="matrix(1 0 0 1 198.5952 592.9758)" style="fill: rgb(0,0,0); text-decoration-thickness: 6.6667%; white-space: pre" x="-10.5" y="3.1414" font-family="sans-serif" font-size="10" font-style="normal" font-weight="normal"><tspan x="-10.5" y="3.1414">J</tspan><tspan x="-4.5" y="3.1414">u</tspan><tspan x="2.06152" y="3.1414">l</tspan><tspan x="5.2832" y="3.1414">y</tspan></text>
<g transform="matrix(1 0 0 1 273.94737 583)" clip-path="url(#CLIPPATH_700)">
<clipPath id="CLIPPATH_700">
<rect transform="matrix(1 0 0 1 128.55263 -283)" x="-402.5" y="-300" width="805" height="600" id="CLIPPATH_628"/>
</clipPath>
<line transform="translate(0,0)" style="stroke: rgb(0,0,0); fill: none" x1="0" y1="-3" x2="0" y2="3"/>
</g>
<text transform="matrix(1 0 0 1 274.381 592.9758)" style="fill: rgb(0,0,0); text-decoration-thickness: 6.6667%; white-space: pre" x="-18.5" y="3.1414" font-family="sans-serif" font-size="10" font-style="normal" font-weight="normal"><tspan x="-18.5" y="3.1414">A</tspan><tspan x="-10.83008" y="3.1414">u</tspan><tspan x="-4.26855" y="3.1414">g</tspan><tspan x="2.29297" y="3.1414">u</tspan><tspan x="8.85449" y="3.1414">s</tspan><tspan x="14.85449" y="3.1414">t</tspan></text>
<g transform="matrix(1 0 0 1 349.40789 583)" clip-path="url(#CLIPPATH_701)">
<clipPath id="CLIPPATH_701">
<rect transform="matrix(1 0 0 1 53.09211 -283)" x="-402.5" y="-300" width="805" height="600" id="CLIPPATH_629"/>
</clipPath>
<line transform="translate(0,0)" style="stroke: rgb(0,0,0); fill: none" x1="0" y1="-3" x2="0" y2="3"/>
</g>
<text transform="matrix(1 0 0 1 349.4499 592.9758)" style="fill: rgb(0,0,0); text-decoration-thickness: 6.6667%; white-space: pre" x="-28.5" y="3.1414" font-family="sans-serif" font-size="10" font-style="normal" font-weight="normal"><tspan x="-28.5" y="3.1414">S</tspan><tspan x="-20.83008" y="3.1414">e</tspan><tspan x="-14.26855" y="3.1414">p</tspan><tspan x="-7.70703" y="3.1414">t</tspan><tspan x="-3.92871" y="3.1414">e</tspan><tspan x="2.63281" y="3.1414">m</tspan><tspan x="11.96289" y="3.1414">b</tspan><tspan x="18.52441" y="3.1414">e</tspan><tspan x="25.08594" y="3.1414">r</tspan></text>
<g transform="matrix(1 0 0 1 422.43421 583)" clip-path="url(#CLIPPATH_702)">
<clipPath id="CLIPPATH_702">
<rect transform="matrix(1 0 0 1 -19.93421 -283)" x="-402.5" y="-300" width="805" height="600" id="CLIPPATH_630"/>
</clipPath>
<line transform="translate(0,0)" style="stroke: rgb(0,0,0); fill: none" x1="0" y1="-3" x2="0" y2="3"/>
</g>
<text transform="matrix(1 0 0 1 422.6486 592.9758)" style="fill: rgb(0,0,0); text-decoration-thickness: 6.6667%; white-space: pre" x="-21" y="3.1414" font-family="sans-serif" font-size="10" font-style="normal" font-weight="normal"><tspan x="-21" y="3.1414">O</tspan><tspan x="-12.22168" y="3.1414">c</tspan><tspan x="-6.22168" y="3.1414">t</tspan><tspan x="-2.44336" y="3.1414">o</tspan><tspan x="4.11816" y="3.1414">b</tspan><tspan x="10.67969" y="3.1414">e</tspan><tspan x="17.24121" y="3.1414">r</tspan></text>
<g transform="matrix(1 0 0 1 497.89474 583)" clip-path="url(#CLIPPATH_703)">
<clipPath id="CLIPPATH_703">
<rect transform="matrix(1 0 0 1 -95.39474 -283)" x="-402.5" y="-300" width="805" height="600" id="CLIPPATH_631"/>
</clipPath>
<line transform="translate(0,0)" style="stroke: rgb(0,0,0); fill: none" x1="0" y1="-3" x2="0" y2="3"/>
</g>
<text transform="matrix(1 0 0 1 498.3308 592.9758)" style="fill: rgb(0,0,0); text-decoration-thickness: 6.6667%; white-space: pre" x="-27" y="3.1414" font-family="sans-serif" font-size="10" font-style="normal" font-weight="normal"><tspan x="-27" y="3.1414">N</tspan><tspan x="-18.77832" y="3.1414">o</tspan><tspan x="-12.2168" y="3.1414">v</tspan><tspan x="-6.2168" y="3.1414">e</tspan><tspan x="0.34473" y="3.1414">m</tspan><tspan x="9.6748" y="3.1414">b</tspan><tspan x="16.23633" y="3.1414">e</tspan><tspan x="22.79785" y="3.1414">r</tspan></text>
<g transform="matrix(1 0 0 1 570.92105 583)" clip-path="url(#CLIPPATH_704)">
<clipPath id="CLIPPATH_704">
<rect transform="matrix(1 0 0 1 -168.42105 -283)" x="-402.5" y="-300" width="805" height="600" id="CLIPPATH_632"/>
</clipPath>
<line transform="translate(0,0)" style="stroke: rgb(0,0,0); fill: none" x1="0" y1="-3" x2="0" y2="3"/>
</g>
<text transform="matrix(1 0 0 1 571.3571 592.9758)" style="fill: rgb(0,0,0); text-decoration-thickness: 6.6667%; white-space: pre" x="-27" y="3.1414" font-family="sans-serif" font-size="10" font-style="normal" font-weight="normal"><tspan x="-27" y="3.1414">D</tspan><tspan x="-18.77832" y="3.1414">e</tspan><tspan x="-12.2168" y="3.1414">c</tspan><tspan x="-6.2168" y="3.1414">e</tspan><tspan x="0.34473" y="3.1414">m</tspan><tspan x="9.6748" y="3.1414">b</tspan><tspan x="16.23633" y="3.1414">e</tspan><tspan x="22.79785" y="3.1414">r</tspan></text>
<g transform="matrix(1 0 0 1 646.38158 583)" clip-path="url(#CLIPPATH_705)">
<clipPath id="CLIPPATH_705">
<rect transform="matrix(1 0 0 1 -243.88158 -283)" x="-402.5" y="-300" width="805" height="600" id="CLIPPATH_633"/>
</clipPath>
<line transform="translate(0,0)" style="stroke: rgb(0,0,0); fill: none" x1="0" y1="-3" x2="0" y2="3"/>
</g>
<text transform="matrix(1 0 0 1 646.7585 592.9758)" style="fill: rgb(0,0,0); text-decoration-thickness: 6.6667%; white-space: pre" x="-13" y="3.1414" font-family="sans-serif" font-size="10" font-style="normal" font-weight="normal"><tspan x="-13" y="3.1414">2</tspan><tspan x="-6.43848" y="3.1414">0</tspan><tspan x="0.12305" y="3.1414">2</tspan><tspan x="6.68457" y="3.1414">6</tspan></text>
<g transform="matrix(1 0 0 1 721.84211 583)" clip-path="url(#CLIPPATH_706)">
<clipPath id="CLIPPATH_706">
<rect transform="matrix(1 0 0 1 -319.34211 -283)" x="-402.5" y="-300" width="805" height="600" id="CLIPPATH_634"/>
</clipPath>
<line transform="translate(0,0)" style="stroke: rgb(0,0,0); fill: none" x1="0" y1="-3" x2="0" y2="3"/>
</g>
<text transform="matrix(1 0 0 1 722.3348 592.9758)" style="fill: rgb(0,0,0); text-decoration-thickness: 6.6667%; white-space: pre" x="-24" y="3.1414" font-family="sans-serif" font-size="10" font-style="normal" font-weight="normal"><tspan x="-24" y="3.1414">F</tspan><tspan x="-16.8916" y="3.1414">e</tspan><tspan x="-10.33008" y="3.1414">b</tspan><tspan x="-3.76855" y="3.1414">r</tspan><tspan x="0.56152" y="3.1414">u</tspan><tspan x="7.12305" y="3.1414">a</tspan><tspan x="13.68457" y="3.1414">r</tspan><tspan x="18.01465" y="3.1414">y</tspan></text>
<g transform="matrix(1 0 0 1 790 583)" clip-path="url(#CLIPPATH_707)">
<clipPath id="CLIPPATH_707">
<rect transform="matrix(1 0 0 1 -387.5 -283)" x="-402.5" y="-300" width="805" height="600" id="CLIPPATH_635"/>
</clipPath>
<line transform="translate(0,0)" style="stroke: rgb(0,0,0); fill: none" x1="0" y1="-3" x2="0" y2="3"/>
</g>
<text transform="matrix(1 0 0 1 790.1084 592.9758)" style="fill: rgb(0,0,0); text-decoration-thickness: 6.6667%; white-space: pre" x="-16" y="3.1414" font-family="sans-serif" font-size="10" font-style="normal" font-weight="normal"><tspan x="-16" y="3.1414">M</tspan><tspan x="-6.66992" y="3.1414">a</tspan><tspan x="-0.1084" y="3.1414">r</tspan><tspan x="4.22168" y="3.1414">c</tspan><tspan x="10.22168" y="3.1414">h</tspan></text>
<text transform="matrix(1 0 0 1 762.1446 571.2511)" style="fill: rgb(123,123,123); text-decoration-thickness: 6.6667%; white-space: pre" x="-28.5" y="3.76968" font-family="Arial, sans-serif" font-size="12" font-style="normal" font-weight="bold"><tspan x="-28.5" y="3.76968">A</tspan><tspan x="-18.83398" y="3.76968">n</tspan><tspan x="-10.50391" y="3.76968">o</tspan><tspan x="-2.17383" y="3.76968" style="white-space: pre; "> </tspan><tspan x="2.16016" y="3.76968">m</tspan><tspan x="13.83008" y="3.76968">e</tspan><tspan x="21.50391" y="3.76968">s</tspan></text>
<g transform="matrix(1 0 0 1 50 295)" clip-path="url(#CLIPPATH_708)">
<clipPath id="CLIPPATH_708">
<rect transform="matrix(1 0 0 1 352.5 5)" x="-402.5" y="-300" width="805" height="600" id="CLIPPATH_636"/>
</clipPath>
<path transform=" translate(0, -285)" style="stroke: rgb(0,0,0); stroke-linecap: round; fill: none" stroke-linecap="round" d="M 0 570 L 0 0"/>
</g>
<g transform="matrix(1 0 0 1 47 580)" clip-path="url(#CLIPPATH_709)">
<clipPath id="CLIPPATH_709">
<rect transform="matrix(1 0 0 1 355.5 -280)" x="-402.5" y="-300" width="805" height="600" id="CLIPPATH_637"/>
</clipPath>
<line transform="translate(0,0)" style="stroke: rgb(0,0,0); fill: none" x1="3" y1="0" x2="-3" y2="0"/>
</g>
<text transform="matrix(1 0 0 1 35.377 580.0758)" style="fill: rgb(0,0,0); text-decoration-thickness: 6.6667%; white-space: pre" x="-6.5" y="3.1414" font-family="sans-serif" font-size="10" font-style="normal" font-weight="normal"><tspan x="-6.5" y="3.1414">3</tspan><tspan x="0.06152" y="3.1414">0</tspan></text>
<g transform="matrix(1 0 0 1 47 516.66667)" clip-path="url(#CLIPPATH_710)">
<clipPath id="CLIPPATH_710">
<rect transform="matrix(1 0 0 1 355.5 -216.66667)" x="-402.5" y="-300" width="805" height="600" id="CLIPPATH_638"/>
</clipPath>
<line transform="translate(0,0)" style="stroke: rgb(0,0,0); fill: none" x1="3" y1="0" x2="-3" y2="0"/>
</g>
<text transform="matrix(1 0 0 1 35.377 516.7425)" style="fill: rgb(0,0,0); text-decoration-thickness: 6.6667%; white-space: pre" x="-6.5" y="3.1414" font-family="sans-serif" font-size="10" font-style="normal" font-weight="normal"><tspan x="-6.5" y="3.1414">4</tspan><tspan x="0.06152" y="3.1414">0</tspan></text>
<g transform="matrix(1 0 0 1 47 453.33333)" clip-path="url(#CLIPPATH_711)">
<clipPath id="CLIPPATH_711">
<rect transform="matrix(1 0 0 1 355.5 -153.33333)" x="-402.5" y="-300" width="805" height="600" id="CLIPPATH_639"/>
</clipPath>
<line transform="translate(0,0)" style="stroke: rgb(0,0,0); fill: none" x1="3" y1="0" x2="-3" y2="0"/>
</g>
<text transform="matrix(1 0 0 1 35.377 453.4092)" style="fill: rgb(0,0,0); text-decoration-thickness: 6.6667%; white-space: pre" x="-6.5" y="3.1414" font-family="sans-serif" font-size="10" font-style="normal" font-weight="normal"><tspan x="-6.5" y="3.1414">5</tspan><tspan x="0.06152" y="3.1414">0</tspan></text>
<g transform="matrix(1 0 0 1 47 390)" clip-path="url(#CLIPPATH_712)">
<clipPath id="CLIPPATH_712">
<rect transform="matrix(1 0 0 1 355.5 -90)" x="-402.5" y="-300" width="805" height="600" id="CLIPPATH_640"/>
</clipPath>
<line transform="translate(0,0)" style="stroke: rgb(0,0,0); fill: none" x1="3" y1="0" x2="-3" y2="0"/>
</g>
<text transform="matrix(1 0 0 1 35.377 390.0758)" style="fill: rgb(0,0,0); text-decoration-thickness: 6.6667%; white-space: pre" x="-6.5" y="3.1414" font-family="sans-serif" font-size="10" font-style="normal" font-weight="normal"><tspan x="-6.5" y="3.1414">6</tspan><tspan x="0.06152" y="3.1414">0</tspan></text>
<g transform="matrix(1 0 0 1 47 326.66667)" clip-path="url(#CLIPPATH_713)">
<clipPath id="CLIPPATH_713">
<rect transform="matrix(1 0 0 1 355.5 -26.66667)" x="-402.5" y="-300" width="805" height="600" id="CLIPPATH_641"/>
</clipPath>
<line transform="translate(0,0)" style="stroke: rgb(0,0,0); fill: none" x1="3" y1="0" x2="-3" y2="0"/>
</g>
<text transform="matrix(1 0 0 1 35.377 326.7425)" style="fill: rgb(0,0,0); text-decoration-thickness: 6.6667%; white-space: pre" x="-6.5" y="3.1414" font-family="sans-serif" font-size="10" font-style="normal" font-weight="normal"><tspan x="-6.5" y="3.1414">7</tspan><tspan x="0.06152" y="3.1414">0</tspan></text>
<g transform="matrix(1 0 0 1 47 263.33333)" clip-path="url(#CLIPPATH_714)">
<clipPath id="CLIPPATH_714">
<rect transform="matrix(1 0 0 1 355.5 36.66667)" x="-402.5" y="-300" width="805" height="600" id="CLIPPATH_642"/>
</clipPath>
<line transform="translate(0,0)" style="stroke: rgb(0,0,0); fill: none" x1="3" y1="0" x2="-3" y2="0"/>
</g>
<text transform="matrix(1 0 0 1 35.377 263.4092)" style="fill: rgb(0,0,0); text-decoration-thickness: 6.6667%; white-space: pre" x="-6.5" y="3.1414" font-family="sans-serif" font-size="10" font-style="normal" font-weight="normal"><tspan x="-6.5" y="3.1414">8</tspan><tspan x="0.06152" y="3.1414">0</tspan></text>
<g transform="matrix(1 0 0 1 47 200)" clip-path="url(#CLIPPATH_715)">
<clipPath id="CLIPPATH_715">
<rect transform="matrix(1 0 0 1 355.5 100)" x="-402.5" y="-300" width="805" height="600" id="CLIPPATH_643"/>
</clipPath>
<line transform="translate(0,0)" style="stroke: rgb(0,0,0); fill: none" x1="3" y1="0" x2="-3" y2="0"/>
</g>
<text transform="matrix(1 0 0 1 35.377 200.0758)" style="fill: rgb(0,0,0); text-decoration-thickness: 6.6667%; white-space: pre" x="-6.5" y="3.1414" font-family="sans-serif" font-size="10" font-style="normal" font-weight="normal"><tspan x="-6.5" y="3.1414">9</tspan><tspan x="0.06152" y="3.1414">0</tspan></text>
<g transform="matrix(1 0 0 1 47 136.66667)" clip-path="url(#CLIPPATH_716)">
<clipPath id="CLIPPATH_716">
<rect transform="matrix(1 0 0 1 355.5 163.33333)" x="-402.5" y="-300" width="805" height="600" id="CLIPPATH_644"/>
</clipPath>
<line transform="translate(0,0)" style="stroke: rgb(0,0,0); fill: none" x1="3" y1="0" x2="-3" y2="0"/>
</g>
<text transform="matrix(1 0 0 1 31.8154 136.7425)" style="fill: rgb(0,0,0); text-decoration-thickness: 6.6667%; white-space: pre" x="-9.5" y="3.1414" font-family="sans-serif" font-size="10" font-style="normal" font-weight="normal"><tspan x="-9.5" y="3.1414">1</tspan><tspan x="-2.93848" y="3.1414">0</tspan><tspan x="3.62305" y="3.1414">0</tspan></text>
<g transform="matrix(1 0 0 1 47 73.33333)" clip-path="url(#CLIPPATH_717)">
<clipPath id="CLIPPATH_717">
<rect transform="matrix(1 0 0 1 355.5 226.66667)" x="-402.5" y="-300" width="805" height="600" id="CLIPPATH_645"/>
</clipPath>
<line transform="translate(0,0)" style="stroke: rgb(0,0,0); fill: none" x1="3" y1="0" x2="-3" y2="0"/>
</g>
<text transform="matrix(1 0 0 1 32.0576 73.4092)" style="fill: rgb(0,0,0); text-decoration-thickness: 6.6667%; white-space: pre" x="-9" y="3.1414" font-family="sans-serif" font-size="10" font-style="normal" font-weight="normal"><tspan x="-9" y="3.1414">1</tspan><tspan x="-3.18066" y="3.1414">1</tspan><tspan x="3.38086" y="3.1414">0</tspan></text>
<g transform="matrix(1 0 0 1 47 10)" clip-path="url(#CLIPPATH_718)">
<clipPath id="CLIPPATH_718">
<rect transform="matrix(1 0 0 1 355.5 290)" x="-402.5" y="-300" width="805" height="600" id="CLIPPATH_646"/>
</clipPath>
<line transform="translate(0,0)" style="stroke: rgb(0,0,0); fill: none" x1="3" y1="0" x2="-3" y2="0"/>
</g>
<text transform="matrix(1 0 0 1 31.8154 10.0758)" style="fill: rgb(0,0,0); text-decoration-thickness: 6.6667%; white-space: pre" x="-9.5" y="3.1414" font-family="sans-serif" font-size="10" font-style="normal" font-weight="normal"><tspan x="-9.5" y="3.1414">1</tspan><tspan x="-2.93848" y="3.1414">2</tspan><tspan x="3.62305" y="3.1414">0</tspan></text>
<text transform="matrix(1 0 0 1 85 6.2511)" style="fill: rgb(123,123,123); text-decoration-thickness: 6.6667%; white-space: pre" x="-31" y="3.76968" font-family="Arial, sans-serif" font-size="12" font-style="normal" font-weight="bold"><tspan x="-31" y="3.76968">D</tspan><tspan x="-21.33398" y="3.76968">i</tspan><tspan x="-17" y="3.76968">s</tspan><tspan x="-9.32617" y="3.76968">t</tspan><tspan x="-4.33008" y="3.76968">a</tspan><tspan x="3.34375" y="3.76968">n</tspan><tspan x="11.67383" y="3.76968">c</tspan><tspan x="19.34766" y="3.76968">i</tspan><tspan x="23.68164" y="3.76968">a</tspan></text>
<g transform="matrix(1 0 0 1 420 314.44333)" clip-path="url(#CLIPPATH_719)">
<clipPath id="CLIPPATH_719">
<rect transform="matrix(1 0 0 1 -17.5 -14.44333)" x="-402.5" y="-300" width="805" height="600" id="CLIPPATH_647"/>
</clipPath>
<path transform=" translate(-370, -304.44333)" style="stroke: rgb(31,119,180); stroke-linecap: round; fill: none" stroke-linecap="round" d="M 0 562.08333 C 37.73026 562.08333 37.73026 369.80333 75.46053 369.80333 C 111.97368 369.80333 111.97368 259.09667 148.48684 259.09667 C 186.21711 259.09667 186.21711 243.51667 223.94737 243.51667 C 261.67763 243.51667 261.67763 275.12 299.40789 275.12 C 335.92105 275.12 335.92105 327.75 372.43421 327.75 C 410.16447 327.75 410.16447 46.80333 447.89474 46.80333 C 484.40789 46.80333 484.40789 327.43333 520.92105 327.43333 C 558.65132 327.43333 558.65132 176.44667 596.38158 176.44667 C 634.11184 176.44667 634.11184 345.04 671.84211 345.04 C 705.92105 345.04 705.92105 356.31333 740 356.31333"/>
</g>
<path transform="translate(0,0)" style="stroke: rgb(0,0,0); stroke-linecap: round; stroke-linejoin: round; stroke-miterlimit: 10; fill: none" stroke-linecap="round" d="M 171.999 291.65256 L 172.001 291.65256"/>
<path transform="translate(0,0)" style="stroke: rgb(0,0,0); stroke-width: 2; stroke-linecap: round; fill: none" vector-effect="non-scaling-stroke" stroke-linecap="round" d="M 51 306.3593 L 795 307.3587 L 795 307.3587"/>
<text transform="matrix(0.6133 0 0 0.6133 329.4804 375.3523)" style="fill: rgb(0,0,0); text-decoration-thickness: 4.08869%; white-space: pre" x="-140.5" y="-6.14268" font-family="Arial, Helvetica, sans-serif" font-size="18" font-style="normal" font-weight="normal"><tspan x="-140.5" y="-6.14268">P</tspan><tspan x="-127.49414" y="-6.14268">r</tspan><tspan x="-120.5" y="-6.14268">o</tspan><tspan x="-109.48926" y="-6.14268">m</tspan><tspan x="-93.49512" y="-6.14268">e</tspan><tspan x="-82.48438" y="-6.14268">d</tspan><tspan x="-71.47363" y="-6.14268">i</tspan><tspan x="-66.47461" y="-6.14268">o</tspan><tspan x="-55.46387" y="-6.14268" style="white-space: pre; "> </tspan><tspan x="-49.46289" y="-6.14268">k</tspan><tspan x="-39.46289" y="-6.14268">m</tspan><tspan x="-23.46875" y="-6.14268">s</tspan><tspan x="-13.46875" y="-6.14268" style="white-space: pre; "> </tspan><tspan x="-7.46777" y="-6.14268">s</tspan><tspan x="2.53223" y="-6.14268">e</tspan><tspan x="13.54297" y="-6.14268">g</tspan><tspan x="24.55371" y="-6.14268">ú</tspan><tspan x="35.56445" y="-6.14268">n</tspan><tspan x="46.5752" y="-6.14268" style="white-space: pre; "> </tspan><tspan x="52.57617" y="-6.14268">l</tspan><tspan x="57.5752" y="-6.14268">a</tspan><tspan x="-140.5" y="17.45172">m</tspan><tspan x="-124.50586" y="17.45172">u</tspan><tspan x="-113.49512" y="17.45172">e</tspan><tspan x="-102.48438" y="17.45172">s</tspan><tspan x="-92.48438" y="17.45172">t</tspan><tspan x="-86.4834" y="17.45172">r</tspan><tspan x="-79.48926" y="17.45172">a</tspan></text>
<path transform="translate(0,0)" style="stroke: rgb(0,0,0); stroke-width: 5; stroke-linecap: round; stroke-miterlimit: 10; fill: none" vector-effect="non-scaling-stroke" stroke-linecap="round" d="M 262.0531 346.0211 L 252.1117 326.2702 L 248.8188 327.9276 L 252.0897 318.0265 L 261.9909 321.2976 L 258.6978 322.9551 L 268.6392 342.706 Z"/>
</svg>